<?xml version="1.0" encoding="utf-8"?>
<!-- Generator: Adobe Illustrator 17.1.0, SVG Export Plug-In . SVG Version: 6.00 Build 0)  -->
<!DOCTYPE svg PUBLIC "-//W3C//DTD SVG 1.1//EN" "http://www.w3.org/Graphics/SVG/1.1/DTD/svg11.dtd">
<svg version="1.1" id="Layer_1" xmlns="http://www.w3.org/2000/svg" xmlns:xlink="http://www.w3.org/1999/xlink" x="0px" y="0px"
	 viewBox="0 0 256 173.3" enable-background="new 0 0 256 173.3" xml:space="preserve">
<g>
	<path fill="#00D8FF" d="M94.4,43.8c0,0,17.7-7.8,19.1-9.9c0,0-2.7-3.3-12.5-6.4c-2.6-0.8-5.1-1-7.5-1c-4.4-0.1-9.3,0.7-12.9,3.3
		c-1.4,1-2.9,2.9-3,4.7c-0.1,1.3,0.4,2.5,1.1,3.6c1.3,1.9,3.6,3.4,5.6,4.5c1.1,0.6,2.4,1.1,3.6,1.6C89.4,44.7,92.2,44.9,94.4,43.8z"
		/>
	<path fill="#00D8FF" d="M146.8,37.6c0,0,1.2,7.3-9.9,15.2c-5,3.6-18.1,11.2-34,15.9c-17.9,5.2-53.5,4.9-62.2,0
		c0,0,13.6-1.5,26.1-4.9s34.3-11.9,44.7-19.2S146.8,37.6,146.8,37.6z"/>
	<path fill="#00D8FF" d="M155.1,30c1.1,3.8,2,7,0.6,10.9c-1.7,4.6-5.2,8.5-9,11.5c-5.2,4.2-11.3,7.5-15.9,12.4
		c-5.1,5.5-8.2,12.8-8.8,20.2c-0.7,8.6,2,18.2,7,25.3c-0.4-0.6,0.9-4.1,1-4.8c2.3-9.8,5.9-18.2,13.3-25.2c4.5-4.2,9.5-7.7,14.6-11.2
		c4.7-3.2,9.6-6.5,13-11.1s5.2-10.8,3.1-16.1c-1.3-3.3-3.9-5.9-6.9-7.8c-2.2-1.4-4.7-2.4-7.2-3.3C159.6,30.9,155,29.8,155.1,30z"/>
	<path fill="#00D8FF" d="M159,108.4c0-18.9,21.9-34.2,48.9-34.2c5.3,0,10.3,0.6,15.1,1.7c-7.5-3.3-16.3-5.3-25.7-5.3
		c-27,0-48.9,15.8-48.9,35.4c0,18.7,20.1,34,45.6,35.3C173.8,137,159,123.9,159,108.4z"/>
	<path fill="#00D8FF" d="M220.3,95.8c-5.1-2-9.7-4.9-15-6.5c-4.7-1.5-9.5-2.4-14.4-2.6c-3.3-0.2-6.7,0.4-10,0.9L181,86l-3.7-0.1
		c-2.2,31.9-3.6,41-4.1,43c-0.1,0.4,0.1,0.7,0.5,0.8l1,0.1c0.3,0,0.6-0.2,0.7-0.5c0.5-2.5,1.8-12.2,1.8-12.2
		c8.2-4.3,18.8-2.4,26.9,1.2c5.5,2.5,9.9,7.7,17.7,6l9.6-26.1C231.3,98.2,226.6,98.3,220.3,95.8z M187.7,111c0,0.7-0.6,1.3-1.3,1.4
		l-5.6,0.6c-0.9,0.1-1.7-0.6-1.6-1.6l0.2-3.4c0-0.7,0.6-1.3,1.4-1.4l5.6-0.3c0.9,0,1.6,0.7,1.5,1.6L187.7,111z M189.8,94.5
		c-0.1,0.7-0.6,1.2-1.3,1.3l-5.9,0.8c-0.9,0.1-1.7-0.6-1.6-1.6l0.3-3.5c0.1-0.7,0.6-1.3,1.3-1.3l6-0.6c0.9-0.1,1.7,0.7,1.6,1.6
		L189.8,94.5z M200.8,104.9c0,1-1,1.7-1.9,1.4l-5.9-1.8c-0.6-0.2-1-0.8-1-1.4v-3.3c0-0.9,0.9-1.6,1.8-1.4l5.9,1.4
		c0.7,0.2,1.1,0.7,1.1,1.4V104.9z M209.5,116.4c0,1-1,1.7-2,1.4l-4.7-1.8c-0.6-0.2-1-0.8-0.9-1.4l0-2.5c0-1,1.1-1.7,2-1.3l4.6,1.9
		c0.5,0.2,0.9,0.8,0.9,1.4V116.4z M214,100c0,1-1,1.7-1.9,1.4l-5.9-2c-0.6-0.2-1-0.8-1-1.4l0-2.6c0-1,1-1.7,1.9-1.4l5.9,2
		c0.6,0.2,1,0.8,1,1.4L214,100z M223.7,110.4l-1,3c-0.3,0.8-1.1,1.2-1.9,0.9l-5.3-2.1c-0.6-0.2-1-0.8-0.9-1.5l0.2-3.3
		c0.1-1,1.1-1.6,2-1.3l6.1,2.4C223.6,108.8,223.9,109.7,223.7,110.4z"/>
	<path fill="#00D8FF" d="M83.8,92.8c-7.8-5.8-17.1-9.5-26.7-11C52.1,81,46.9,80.7,41.8,81c-2.5,0.2-5.1,0.5-7.6,1.1
		c-3.3,0.8-6.6,2-9.5,3.6c1.1-0.2,2.3-0.2,3.5-0.3c1-0.1,2-0.1,3-0.2c3.2-0.1,6.4-0.1,9.6,0.1v4.8c0,0.5,0.4,0.9,0.9,0.9h1.7
		c0.5,0,0.9-0.4,0.9-0.9v-4.5c1,0.1,1.9,0.2,2.9,0.3c9.1,1.2,18.3,3.9,26,8.9l-6,5.1l0.6,0.7l6.2-5.3c3,2.1,5.8,4.5,8.2,7.4
		c2.8,3.4,4.7,7.4,5.6,11.6l-14.2,0l0-0.3c0-0.3-0.3-0.6-0.6-0.6l-16.5,0c-0.3,0-0.6,0.3-0.6,0.6l0,0.3l-11.1,0v-4.2
		c1.5-1.8,3.3-4.2,3.3-4.8c0-1-5.4-11.8-5.4-11.8s-5.4,10.7-5.4,11.8c0,0.6,1.9,3.1,3.4,4.9v4.1l-3.4,0l0,2.7l18.6,0l0,0.4
		c0,0.3,0.3,0.6,0.6,0.6l16.5,0c0.3,0,0.6-0.3,0.6-0.6l0-0.4l14.6,0c0.4,3.6,0,7.2-1.1,10.7c-0.9,2.8-2.2,5.2-3.8,7.4l-4.9-3.5
		c-0.4-0.3-1-0.2-1.3,0.2l-0.9,1.3c-0.3,0.4-0.2,1,0.2,1.3l4.7,3.4c0,0-0.8,0.8-0.9,0.9c-0.3,0.3-0.6,0.6-0.9,0.8
		c-0.6,0.5-1.3,1-2,1.5c-1.4,1-2.8,1.8-4.3,2.6c-1.9,1-3.8,1.9-5.8,2.7c-0.4,0.2-0.8,0.4-1.2,0.5c0,0,2.3-0.1,4.9-0.5
		c1.2-0.1,2.4-0.4,3.5-0.7c0.1,0,0.3-0.1,0.4-0.1c11.4-3,21.1-12.7,23-24.5C99.5,109.6,92.7,99.5,83.8,92.8z M42.6,107.5l-2-2.7
		l2-3.8l2,3.8L42.6,107.5z M68.5,115.9H61v-0.4h7.5V115.9z"/>
</g>
</svg>
